<svg width="1186" height="100" viewBox="0 0 1186 100" fill="none" xmlns="http://www.w3.org/2000/svg">
<g clip-path="url(#clip0_3_2)">
<rect width="536" height="100" fill="#05DF72"/>
<path d="M17.568 83V15.8H136.608V38.072H47.328V45.944H126.24V66.296H47.328V83H17.568ZM142.597 83V60.728H187.237V38.072H142.597V15.8H261.637V38.072H216.997V60.728H261.637V83H142.597ZM271.349 83V15.8H301.109V60.728H390.389V83H271.349ZM397.443 83V15.8H516.483V35.192H427.203V41.144H506.115V57.656H427.203V63.608H516.483V83H397.443ZM616.383 84.536C608.575 84.536 600.703 84.024 592.767 83C584.831 82.04 577.247 80.76 570.015 79.16C562.783 77.496 556.351 75.704 550.719 73.784L559.647 58.136C570.399 62.168 580.639 64.792 590.367 66.008C600.159 67.16 609.535 67.736 618.495 67.736C625.151 67.736 630.175 67.48 633.567 66.968C636.959 66.392 638.655 65.496 638.655 64.28C638.655 63.192 637.407 62.424 634.911 61.976C632.479 61.528 629.183 61.272 625.023 61.208C620.863 61.08 616.223 60.952 611.103 60.824C606.047 60.696 600.799 60.472 595.359 60.152C589.983 59.832 584.767 59.256 579.711 58.424C574.655 57.528 570.111 56.248 566.079 54.584C562.047 52.92 558.815 50.712 556.383 47.96C554.015 45.208 552.831 41.752 552.831 37.592C552.831 33.24 554.175 29.56 556.863 26.552C559.615 23.544 563.359 21.144 568.095 19.352C572.831 17.56 578.239 16.28 584.319 15.512C590.463 14.68 596.895 14.264 603.615 14.264C609.631 14.264 615.679 14.552 621.759 15.128C627.903 15.64 633.855 16.376 639.615 17.336C645.375 18.232 650.719 19.288 655.647 20.504C660.575 21.72 664.799 23 668.319 24.344L659.391 39.992C653.951 38.072 647.935 36.472 641.343 35.192C634.815 33.848 628.031 32.856 620.991 32.216C613.951 31.512 606.975 31.16 600.063 31.16C589.375 31.16 584.031 32.28 584.031 34.52C584.031 35.544 585.279 36.28 587.775 36.728C590.271 37.176 593.599 37.464 597.759 37.592C601.983 37.656 606.623 37.752 611.679 37.88C616.671 38.008 621.855 38.232 627.231 38.552C632.671 38.872 637.887 39.448 642.879 40.28C647.935 41.112 652.479 42.36 656.511 44.024C660.607 45.624 663.839 47.768 666.207 50.456C668.575 53.144 669.759 56.504 669.759 60.536C669.759 64.952 668.287 68.696 665.343 71.768C662.463 74.84 658.527 77.336 653.535 79.256C648.543 81.112 642.847 82.456 636.447 83.288C630.047 84.12 623.359 84.536 616.383 84.536ZM677.381 83V15.8H707.141V37.784H766.661V15.8H796.421V83H766.661V59.096H707.141V83H677.381ZM801.455 83L843.407 15.8H878.639L920.495 83H888.527L882.767 72.536H839.471L833.423 83H801.455ZM852.239 50.264L848.975 56.024H873.647L870.479 50.264L862.511 33.944H860.591L852.239 50.264ZM925.443 83V15.8H1021.16C1028 15.8 1033.25 17.336 1036.9 20.408C1040.55 23.416 1042.37 27.576 1042.37 32.888C1042.37 36.984 1041.12 40.312 1038.63 42.872C1036.13 45.432 1032.23 47.192 1026.92 48.152V50.072C1032.74 50.584 1037.12 52.248 1040.07 55.064C1043.01 57.816 1044.48 61.4 1044.48 65.816V83H1013.38V66.776C1013.38 65.624 1013.03 64.696 1012.32 63.992C1011.62 63.288 1010.66 62.936 1009.44 62.936H955.203V83H925.443ZM955.203 44.696H1007.52C1008.74 44.696 1009.7 44.312 1010.4 43.544C1011.11 42.776 1011.46 41.752 1011.46 40.472C1011.46 39.064 1011.08 38.008 1010.31 37.304C1009.54 36.6 1008.61 36.248 1007.52 36.248H955.203V44.696ZM1053.13 83V15.8H1172.17V35.192H1082.89V41.144H1161.8V57.656H1082.89V63.608H1172.17V83H1053.13Z" fill="black"/>
</g>
<defs>
<clipPath id="clip0_3_2">
<rect width="1186" height="100" fill="white"/>
</clipPath>
</defs>
</svg>
